<?xml version="1.0" encoding="iso-8859-1"?>
<!-- Generator: Adobe Illustrator 21.0.0, SVG Export Plug-In . SVG Version: 6.00 Build 0)  -->
<svg version="1.1" id="&#x56FE;&#x5C42;_1" xmlns="http://www.w3.org/2000/svg" xmlns:xlink="http://www.w3.org/1999/xlink" x="0px"
	 y="0px" viewBox="0 0 240 213" style="enable-background:new 0 0 240 213;" xml:space="preserve">
<g>
	<path style="fill:#FFFFFF;stroke:#C3CCD5;stroke-width:2;stroke-miterlimit:10;" d="M184.86,112.647h30.25v50.5
		c0,0,0.75,15.75-12.5,15.75h-17.75V112.647z"/>
	<path style="fill:#E4E8ED;stroke:#C3CCD5;stroke-width:2;stroke-miterlimit:10;" d="M172.61,39.918c0,0,18-0.003,18,16.479v111.5
		c0,0,0.75,11,13,11h-74.25V39.918H172.61z"/>
	<path style="fill:#FFFFFF;stroke:#C3CCD5;stroke-width:2;stroke-miterlimit:10;" d="M88.817,39.939l-8.957-0.022
		c0,0-18.75,3.354-18.75,20.229s0,118.75,0,118.75h81.5c0,0,13-1.75,13-13.875s0-107.5,0-107.5s0.5-17.375,19.25-17.375
		l-30.376-0.073"/>
	<path style="fill:#E4E8ED;stroke:#C3CCD5;stroke-width:2;stroke-miterlimit:10;" d="M144.451,42.397
		c-0.474-6.961-7.458-12.864-17.256-15.373c1.24-2,1.969-4.351,1.969-6.877c0-7.226-5.858-13.083-13.083-13.083
		c-7.226,0-13.083,5.858-13.083,13.083c0,2.64,0.789,5.094,2.134,7.15c-9.27,2.645-15.799,8.379-16.256,15.1l-0.044,5.667h55.667
		L144.451,42.397z M116.663,24.77c-2.877,0-5.21-2.333-5.21-5.21c0-2.877,2.333-5.21,5.21-5.21c2.877,0,5.21,2.333,5.21,5.21
		C121.873,22.438,119.541,24.77,116.663,24.77z"/>
	<path style="fill:#E4E8ED;stroke:#C3CCD5;stroke-width:2;stroke-miterlimit:10;" d="M34.11,144.147h92.5v21.75
		c0,0-0.125,13,15.75,13H42.985c0,0-13.25-2.125-13.25-19.875C29.735,159.022,28.985,147.647,34.11,144.147z"/>
	<g>
		<path style="fill:#DDE3E8;" d="M105.902,94.897h-30.75c-1.031,0-1.875-0.844-1.875-1.875l0,0c0-1.031,0.844-1.875,1.875-1.875
			h30.75c1.031,0,1.875,0.844,1.875,1.875l0,0C107.777,94.053,106.933,94.897,105.902,94.897z"/>
		<path style="fill:#DDE3E8;" d="M123.41,94.897h-10.259c-1.031,0-1.875-0.844-1.875-1.875l0,0c0-1.031,0.844-1.875,1.875-1.875
			h10.259c1.031,0,1.875,0.844,1.875,1.875l0,0C125.285,94.053,124.442,94.897,123.41,94.897z"/>
		<path style="fill:#DDE3E8;" d="M114.86,107.897H75.152c-1.031,0-1.875-0.844-1.875-1.875v0c0-1.031,0.844-1.875,1.875-1.875
			h39.708c1.031,0,1.875,0.844,1.875,1.875v0C116.735,107.053,115.891,107.897,114.86,107.897z"/>
		<path style="fill:#DDE3E8;" d="M133.86,120.897H75.152c-1.031,0-1.875-0.844-1.875-1.875v0c0-1.031,0.844-1.875,1.875-1.875
			h58.708c1.031,0,1.875,0.844,1.875,1.875v0C135.735,120.053,134.891,120.897,133.86,120.897z"/>
		<path style="fill:#DDE3E8;" d="M103.36,133.897H75.152c-1.031,0-1.875-0.844-1.875-1.875l0,0c0-1.031,0.844-1.875,1.875-1.875
			h28.208c1.031,0,1.875,0.844,1.875,1.875l0,0C105.235,133.053,104.391,133.897,103.36,133.897z"/>
	</g>
	<g>
		<path style="fill:none;stroke:#C3CCD5;stroke-width:2;stroke-miterlimit:10;" d="M216.422,32.787
			c-3.214,0-5.829-2.615-5.829-5.829s2.615-5.828,5.829-5.828s5.828,2.614,5.828,5.828S219.636,32.787,216.422,32.787z"/>
	</g>
	<g>
		<path style="fill:none;stroke:#C3CCD5;stroke-width:2;stroke-miterlimit:10;" d="M146.408,12.392
			c-2.232,0-4.048-1.816-4.048-4.048s1.816-4.048,4.048-4.048c2.232,0,4.048,1.816,4.048,4.048S148.64,12.392,146.408,12.392z"/>
	</g>
	<g>
		<path style="fill:none;stroke:#C3CCD5;stroke-width:2;stroke-miterlimit:10;" d="M144.773,193.974
			c-1.331,0-2.414-1.083-2.414-2.414s1.083-2.413,2.414-2.413s2.413,1.083,2.413,2.413S146.104,193.974,144.773,193.974z"/>
	</g>
	<g>
		<g>
			<polygon style="fill:#C5CDD3;" points="223.972,94.11 221.624,93.61 222.684,88.626 217.688,87.564 218.186,85.217 
				223.182,86.279 224.241,81.296 226.59,81.793 225.531,86.778 230.526,87.839 230.028,90.187 225.032,89.125 			"/>
		</g>
	</g>
	<g>
		<g>
			<polygon style="fill:#C5CDD3;" points="227.876,190.792 227.811,186.62 223.641,186.686 223.603,184.36 227.774,184.294 
				227.709,180.122 230.036,180.087 230.101,184.257 234.271,184.192 234.309,186.519 230.138,186.584 230.203,190.754 			"/>
		</g>
	</g>
	<g>
		<g>
			<polygon style="fill:#C5CDD3;" points="71.509,208.703 69.447,207.624 71.385,203.929 67.691,201.991 68.771,199.931 
				72.466,201.868 74.404,198.174 76.464,199.254 74.527,202.949 78.221,204.887 77.141,206.947 73.447,205.01 			"/>
		</g>
	</g>
	<g>
		<polygon style="fill:#C5CDD3;" points="9.509,56.703 7.447,55.624 9.385,51.929 5.691,49.991 6.771,47.931 10.466,49.868 
			12.404,46.174 14.464,47.254 12.527,50.949 16.221,52.887 15.141,54.947 11.447,53.01 		"/>
	</g>
	<g>
		<path style="fill:#C5CDD3;" d="M36.88,100.02c-1.941,0-3.521-1.579-3.521-3.52c0-1.941,1.579-3.521,3.521-3.521
			c1.941,0,3.52,1.579,3.52,3.521C40.4,98.441,38.821,100.02,36.88,100.02z M36.88,94.98c-0.838,0-1.521,0.682-1.521,1.521
			s0.682,1.52,1.521,1.52s1.52-0.682,1.52-1.52S37.719,94.98,36.88,94.98z"/>
	</g>
	<g>
		<g>
			<path style="fill:#C3CCD5;" d="M93.263,81.277L74.149,62.163c-1.163-1.163-1.163-3.067,0-4.23v0c1.163-1.163,3.067-1.163,4.23,0
				l19.114,19.114c1.163,1.163,1.163,3.067,0,4.23l0,0C96.33,82.44,94.427,82.44,93.263,81.277z"/>
			<path style="fill:#C3CCD5;" d="M74.149,77.048l19.114-19.114c1.163-1.163,3.067-1.163,4.23,0v0c1.163,1.163,1.163,3.067,0,4.23
				L78.379,81.277c-1.163,1.163-3.067,1.163-4.23,0l0,0C72.986,80.114,72.986,78.211,74.149,77.048z"/>
		</g>
	</g>
</g>
</svg>
